/* XPM */
static char * HistoryIcon_xpm[] = {
"16 16 104 2",
"  	c None",
". 	c #C48133",
"+ 	c #E0AB42",
"@ 	c #F7DC61",
"# 	c #F8DD64",
"$ 	c #E4B256",
"% 	c #D69036",
"& 	c #E0B14E",
"* 	c #F2D864",
"= 	c #F4D762",
"- 	c #E3B053",
"; 	c #B46324",
"> 	c #ECC57C",
", 	c #F7DD72",
"' 	c #D07E27",
") 	c #EDC359",
"! 	c #EFC353",
"~ 	c #C36F26",
"{ 	c #F0C16A",
"] 	c #F8E265",
"^ 	c #DC8929",
"/ 	c #EEC05B",
"( 	c #F0CC58",
"_ 	c #C67026",
": 	c #F1BB52",
"< 	c #F7D84C",
"[ 	c #CF7E28",
"} 	c #ECBC53",
"| 	c #EFC94D",
"1 	c #C67027",
"2 	c #EBAB3B",
"3 	c #F6C03E",
"4 	c #F8CC3C",
"5 	c #F9CF3E",
"6 	c #F6B935",
"7 	c #ED9B2C",
"8 	c #D7882E",
"9 	c #EEC358",
"0 	c #F4D34E",
"a 	c #BD6B26",
"b 	c #E9B341",
"c 	c #E7A334",
"d 	c #DD8B2E",
"e 	c #CB7C29",
"f 	c #C47728",
"g 	c #C77728",
"h 	c #C87E2B",
"i 	c #EBC050",
"j 	c #F8D850",
"k 	c #B16324",
"l 	c #E1B544",
"m 	c #F1C03C",
"n 	c #DE952D",
"o 	c #B76925",
"p 	c #C77327",
"q 	c #EAB744",
"r 	c #F6CF4F",
"s 	c #A95D22",
"t 	c #DDB141",
"u 	c #EEB935",
"v 	c #C97528",
"w 	c #E5AD44",
"x 	c #F4C64E",
"y 	c #D7AC3E",
"z 	c #E6AC30",
"A 	c #C37027",
"B 	c #E1A946",
"C 	c #F0BF4D",
"D 	c #B06424",
"E 	c #D9A53F",
"F 	c #E5A836",
"G 	c #BF6C27",
"H 	c #E0B35C",
"I 	c #F3CC61",
"J 	c #C88127",
"K 	c #E1AB52",
"L 	c #EFBE57",
"M 	c #D8992D",
"N 	c #E1B45F",
"O 	c #F1D26C",
"P 	c #CB882B",
"Q 	c #C17828",
"R 	c #BF7127",
"S 	c #B57630",
"T 	c #CF9C38",
"U 	c #D0992A",
"V 	c #BB792C",
"W 	c #B46C27",
"X 	c #AC6E2B",
"Y 	c #C08934",
"Z 	c #B51518",
"` 	c #B61718",
" .	c #BE191A",
"..	c #C81A1C",
"+.	c #D21B1F",
"@.	c #DC1D21",
"#.	c #E71D24",
"$.	c #E71E24",
"%.	c #DD1D21",
"&.	c #D21C1F",
"*.	c #C81A1D",
"=.	c #BE181A",
"-.	c #B61618",
";.	c #FFFFFF",
"    . + @ # $     % & * = -     ",
"      ; > ,         ' ) !       ",
"      ~ { ]         ^ / (       ",
"      _ : <         [ } |       ",
"      1 2 3 4 5 6 7 8 9 0       ",
"      a b c d e f g h i j       ",
"      k l m n     o p q r       ",
"      s t u         v w x       ",
"      s y z         A B C       ",
"      D E F         G H I       ",
"      J K L         M N O       ",
"    P Q R S T     U V W X Y     ",
"  Z `  ...+.@.#.$.%.&.*.=.-.Z   ",
"                                ",
";.;.;.;.;.;.  ;.;.  ;.;.;.  ;.  ",
";.;.  ;.;.;.  ;.  ;.;.;.;.  ;.  "};
